<svg width="80" height="80" viewBox="0 0 80 80" fill="none" xmlns="http://www.w3.org/2000/svg">
<g clip-path="url(#clip0_14_75)">
<path d="M78.49 36.4344L43.56 1.50942C43.0817 1.03093 42.5139 0.651357 41.8889 0.392386C41.2639 0.133415 40.594 0.00012207 39.9175 0.00012207C39.241 0.00012207 38.5711 0.133415 37.9461 0.392386C37.3211 0.651357 36.7532 1.03093 36.275 1.50942L29.025 8.75942L38.225 17.9594C39.31 17.589 40.4773 17.531 41.5937 17.7922C42.7101 18.0533 43.7305 18.6231 44.5386 19.4364C45.3467 20.2497 45.9099 21.2738 46.1639 22.3919C46.4179 23.5099 46.3524 24.6768 45.975 25.7594L54.84 34.6294C56.1515 34.1676 57.5813 34.1662 58.8937 34.6255C60.2062 35.0847 61.3231 35.9772 62.0607 37.1559C62.7982 38.3347 63.1123 39.7295 62.9514 41.1106C62.7904 42.4917 62.1638 43.7769 61.175 44.7544C60.1739 45.7616 58.8542 46.39 57.4412 46.5323C56.0283 46.6746 54.6098 46.3218 53.428 45.5344C52.2463 44.7469 51.3746 43.5736 50.9618 42.2148C50.5491 40.8561 50.6209 39.3961 51.165 38.0844L42.9 29.8144V51.5794C44.1563 52.2013 45.1615 53.2349 45.7481 54.5081C46.3346 55.7812 46.4671 57.2169 46.1235 58.5759C45.7799 59.9349 44.9808 61.1351 43.8596 61.9764C42.7384 62.8177 41.3626 63.2493 39.9618 63.1993C38.5609 63.1493 37.2195 62.6206 36.1611 61.7015C35.1027 60.7823 34.3914 59.5282 34.1455 58.1482C33.8997 56.7681 34.1343 55.3455 34.8102 54.1174C35.4861 52.8894 36.5625 51.9301 37.86 51.3994V29.4344C37.1114 29.1277 36.431 28.6758 35.8579 28.1049C35.2848 27.534 34.8303 26.8552 34.5208 26.1078C34.2112 25.3604 34.0527 24.5592 34.0543 23.7502C34.0558 22.9412 34.2175 22.1406 34.53 21.3944L25.465 12.3244L1.51498 36.2744C1.03649 36.7527 0.656911 37.3205 0.39794 37.9455C0.138969 38.5705 0.00567627 39.2404 0.00567627 39.9169C0.00567627 40.5934 0.138969 41.2633 0.39794 41.8883C0.656911 42.5133 1.03649 43.0812 1.51498 43.5594L36.445 78.4894C36.9232 78.9679 37.4911 79.3475 38.1161 79.6065C38.7411 79.8654 39.411 79.9987 40.0875 79.9987C40.764 79.9987 41.4339 79.8654 42.0589 79.6065C42.6839 79.3475 43.2517 78.9679 43.73 78.4894L78.495 43.7244C79.4601 42.7579 80.0022 41.4478 80.0022 40.0819C80.0022 38.716 79.4601 37.406 78.495 36.4394" fill="#FB7A03"/>
</g>
<defs>
<clipPath id="clip0_14_75">
<rect width="80" height="80" fill="white"/>
</clipPath>
</defs>
</svg>
