<svg width="25" height="25" viewBox="0 0 25 25" fill="none" xmlns="http://www.w3.org/2000/svg">
<path d="M20.8333 18.7501H18.75V9.6355L12.5 13.5417L6.24998 9.6355V18.7501H4.16665V6.25008H5.41665L12.5 10.6772L19.5833 6.25008H20.8333M20.8333 4.16675H4.16665C3.0104 4.16675 2.08331 5.09383 2.08331 6.25008V18.7501C2.08331 19.3026 2.30281 19.8325 2.69351 20.2232C3.08421 20.6139 3.61411 20.8334 4.16665 20.8334H20.8333C21.3858 20.8334 21.9158 20.6139 22.3065 20.2232C22.6972 19.8325 22.9166 19.3026 22.9166 18.7501V6.25008C22.9166 5.69755 22.6972 5.16764 22.3065 4.77694C21.9158 4.38624 21.3858 4.16675 20.8333 4.16675Z" fill="#496CE7"/>
</svg>
