<svg width="85" height="120" viewBox="0 0 85 120" fill="none" xmlns="http://www.w3.org/2000/svg">
<g clip-path="url(#clip0_15_115)">
<path d="M22 80C33.04 80 42 74.0267 42 66.6667V53.3334H22C10.96 53.3334 2 59.3067 2 66.6667C2 74.0267 10.96 80 22 80Z" fill="#0ACF83"/>
<path d="M2 40C2 32.64 10.96 26.6667 22 26.6667H42V53.3334H22C10.96 53.3334 2 47.36 2 40Z" fill="#A259FF"/>
<path d="M2 13.3333C2 5.97333 10.96 0 22 0H42V26.6667H22C10.96 26.6667 2 20.6933 2 13.3333Z" fill="#F24E1E"/>
<path d="M42 0H62C73.04 0 82 5.97333 82 13.3333C82 20.6933 73.04 26.6667 62 26.6667H42V0Z" fill="#FF7262"/>
<path d="M82 40C82 47.36 73.04 53.3334 62 53.3334C50.96 53.3334 42 47.36 42 40C42 32.64 50.96 26.6667 62 26.6667C73.04 26.6667 82 32.64 82 40Z" fill="#1ABCFE"/>
</g>
<path d="M18.1992 82.7812V97H15.2695V82.7812H18.1992ZM23.8633 88.8555V91.1406H17.3984V88.8555H23.8633ZM24.5469 82.7812V85.0762H17.3984V82.7812H24.5469ZM29.0391 86.4336V97H26.2168V86.4336H29.0391ZM26.041 83.6797C26.041 83.2695 26.1842 82.931 26.4707 82.6641C26.7572 82.3971 27.1413 82.2637 27.623 82.2637C28.0983 82.2637 28.4792 82.3971 28.7656 82.6641C29.0586 82.931 29.2051 83.2695 29.2051 83.6797C29.2051 84.0898 29.0586 84.4284 28.7656 84.6953C28.4792 84.9622 28.0983 85.0957 27.623 85.0957C27.1413 85.0957 26.7572 84.9622 26.4707 84.6953C26.1842 84.4284 26.041 84.0898 26.041 83.6797ZM38.0527 86.4336H40.6016V96.6484C40.6016 97.612 40.3867 98.429 39.957 99.0996C39.5339 99.7767 38.9414 100.288 38.1797 100.633C37.418 100.984 36.5326 101.16 35.5234 101.16C35.0807 101.16 34.612 101.102 34.1172 100.984C33.6289 100.867 33.1602 100.685 32.7109 100.438C32.2682 100.19 31.8971 99.8776 31.5977 99.5L32.8379 97.8398C33.1634 98.2174 33.541 98.5104 33.9707 98.7188C34.4004 98.9336 34.8757 99.041 35.3965 99.041C35.9043 99.041 36.334 98.9466 36.6855 98.7578C37.0371 98.5755 37.3073 98.3053 37.4961 97.9473C37.6849 97.5957 37.7793 97.1693 37.7793 96.668V88.875L38.0527 86.4336ZM30.9434 91.8438V91.6387C30.9434 90.8314 31.041 90.099 31.2363 89.4414C31.4382 88.7773 31.7214 88.2077 32.0859 87.7324C32.457 87.2572 32.9062 86.8893 33.4336 86.6289C33.9609 86.3685 34.5566 86.2383 35.2207 86.2383C35.9238 86.2383 36.513 86.3685 36.9883 86.6289C37.4635 86.8893 37.8542 87.2604 38.1602 87.7422C38.4661 88.2174 38.7038 88.7806 38.873 89.4316C39.0488 90.0762 39.1855 90.7826 39.2832 91.5508V92C39.1855 92.7357 39.0391 93.4193 38.8438 94.0508C38.6484 94.6823 38.3913 95.2357 38.0723 95.7109C37.7533 96.1797 37.3561 96.5443 36.8809 96.8047C36.4121 97.0651 35.8522 97.1953 35.2012 97.1953C34.5501 97.1953 33.9609 97.0618 33.4336 96.7949C32.9128 96.528 32.4668 96.1536 32.0957 95.6719C31.7246 95.1901 31.4382 94.6237 31.2363 93.9727C31.041 93.3216 30.9434 92.612 30.9434 91.8438ZM33.7559 91.6387V91.8438C33.7559 92.2799 33.7982 92.6868 33.8828 93.0645C33.9674 93.4421 34.0977 93.7773 34.2734 94.0703C34.4557 94.3568 34.6803 94.5814 34.9473 94.7441C35.2207 94.9004 35.543 94.9785 35.9141 94.9785C36.4284 94.9785 36.8483 94.8711 37.1738 94.6562C37.4993 94.4349 37.7435 94.1322 37.9062 93.748C38.069 93.3639 38.1634 92.9212 38.1895 92.4199V91.1406C38.1764 90.7305 38.1211 90.3626 38.0234 90.0371C37.9258 89.7051 37.7891 89.4219 37.6133 89.1875C37.4375 88.9531 37.2096 88.7708 36.9297 88.6406C36.6497 88.5104 36.3177 88.4453 35.9336 88.4453C35.5625 88.4453 35.2402 88.5299 34.9668 88.6992C34.6999 88.862 34.4753 89.0866 34.293 89.373C34.1172 89.6595 33.9837 89.998 33.8926 90.3887C33.8014 90.7728 33.7559 91.1895 33.7559 91.6387ZM45.6016 88.6211V97H42.7793V86.4336H45.4258L45.6016 88.6211ZM45.2109 91.3457H44.4297C44.4297 90.61 44.5176 89.9329 44.6934 89.3145C44.8757 88.6895 45.1393 88.1491 45.4844 87.6934C45.8359 87.2311 46.2689 86.873 46.7832 86.6191C47.2975 86.3652 47.8932 86.2383 48.5703 86.2383C49.0391 86.2383 49.4688 86.3099 49.8594 86.4531C50.25 86.5898 50.5853 86.8079 50.8652 87.1074C51.1517 87.4004 51.373 87.7845 51.5293 88.2598C51.6855 88.7285 51.7637 89.2917 51.7637 89.9492V97H48.9512V90.2617C48.9512 89.7799 48.8861 89.4089 48.7559 89.1484C48.6257 88.888 48.4401 88.7057 48.1992 88.6016C47.9648 88.4974 47.6816 88.4453 47.3496 88.4453C46.985 88.4453 46.666 88.5202 46.3926 88.6699C46.1257 88.8197 45.9043 89.028 45.7285 89.2949C45.5527 89.5553 45.4225 89.8613 45.3379 90.2129C45.2533 90.5645 45.2109 90.9421 45.2109 91.3457ZM51.5 91.0234L50.4941 91.1504C50.4941 90.4603 50.5788 89.819 50.748 89.2266C50.9238 88.6341 51.181 88.1133 51.5195 87.6641C51.8646 87.2148 52.291 86.8665 52.7988 86.6191C53.3066 86.3652 53.8926 86.2383 54.5566 86.2383C55.0645 86.2383 55.5267 86.3132 55.9434 86.4629C56.36 86.6061 56.7148 86.8372 57.0078 87.1562C57.3073 87.4688 57.5352 87.8789 57.6914 88.3867C57.8542 88.8945 57.9355 89.5163 57.9355 90.252V97H55.1133V90.252C55.1133 89.7637 55.0482 89.3926 54.918 89.1387C54.7943 88.8783 54.612 88.6992 54.3711 88.6016C54.1367 88.4974 53.8568 88.4453 53.5312 88.4453C53.1927 88.4453 52.8965 88.5137 52.6426 88.6504C52.3887 88.7806 52.1771 88.9629 52.0078 89.1973C51.8385 89.4316 51.7116 89.7051 51.627 90.0176C51.5423 90.3236 51.5 90.6589 51.5 91.0234ZM65.8164 94.6172V89.9102C65.8164 89.5716 65.7611 89.2819 65.6504 89.041C65.5397 88.7936 65.3672 88.6016 65.1328 88.4648C64.9049 88.3281 64.6087 88.2598 64.2441 88.2598C63.9316 88.2598 63.6615 88.3151 63.4336 88.4258C63.2057 88.5299 63.0299 88.6829 62.9062 88.8848C62.7826 89.0801 62.7207 89.3112 62.7207 89.5781H59.9082C59.9082 89.1289 60.0124 88.7025 60.2207 88.2988C60.429 87.8952 60.7318 87.5404 61.1289 87.2344C61.526 86.9219 61.998 86.6777 62.5449 86.502C63.0983 86.3262 63.7168 86.2383 64.4004 86.2383C65.2207 86.2383 65.9499 86.375 66.5879 86.6484C67.2259 86.9219 67.7272 87.332 68.0918 87.8789C68.4629 88.4258 68.6484 89.1094 68.6484 89.9297V94.4512C68.6484 95.0306 68.6842 95.5059 68.7559 95.877C68.8275 96.2415 68.9316 96.5605 69.0684 96.834V97H66.2266C66.0898 96.7135 65.9857 96.3555 65.9141 95.9258C65.849 95.4896 65.8164 95.0534 65.8164 94.6172ZM66.1875 90.5645L66.207 92.1562H64.6348C64.2637 92.1562 63.9414 92.1986 63.668 92.2832C63.3945 92.3678 63.1699 92.4883 62.9941 92.6445C62.8184 92.7943 62.6882 92.9701 62.6035 93.1719C62.5254 93.3737 62.4863 93.5951 62.4863 93.8359C62.4863 94.0768 62.5417 94.2949 62.6523 94.4902C62.763 94.679 62.9225 94.8288 63.1309 94.9395C63.3392 95.0436 63.5833 95.0957 63.8633 95.0957C64.2865 95.0957 64.6543 95.0111 64.9668 94.8418C65.2793 94.6725 65.5202 94.4642 65.6895 94.2168C65.8652 93.9694 65.9564 93.735 65.9629 93.5137L66.7051 94.7051C66.6009 94.972 66.4577 95.2487 66.2754 95.5352C66.0996 95.8216 65.875 96.0918 65.6016 96.3457C65.3281 96.5931 64.9993 96.7982 64.6152 96.9609C64.2311 97.1172 63.7754 97.1953 63.248 97.1953C62.5775 97.1953 61.9688 97.0618 61.4219 96.7949C60.8815 96.5215 60.4518 96.1471 60.1328 95.6719C59.8203 95.1901 59.6641 94.6432 59.6641 94.0312C59.6641 93.4779 59.7682 92.9863 59.9766 92.5566C60.1849 92.127 60.4909 91.7656 60.8945 91.4727C61.3047 91.1732 61.8158 90.9486 62.4277 90.7988C63.0397 90.6426 63.7493 90.5645 64.5566 90.5645H66.1875Z" fill="black"/>
<path d="M2.75391 105.336V116H1.34033V105.336H2.75391ZM6.47461 109.767V116H5.11963V108.075H6.40137L6.47461 109.767ZM6.15234 111.737L5.58838 111.715C5.59326 111.173 5.67383 110.673 5.83008 110.214C5.98633 109.75 6.20605 109.347 6.48926 109.005C6.77246 108.664 7.10938 108.4 7.5 108.214C7.89551 108.024 8.33252 107.929 8.81104 107.929C9.20166 107.929 9.55322 107.982 9.86572 108.09C10.1782 108.192 10.4443 108.358 10.6641 108.588C10.8887 108.817 11.0596 109.115 11.1768 109.481C11.2939 109.843 11.3525 110.285 11.3525 110.807V116H9.99023V110.792C9.99023 110.377 9.9292 110.045 9.80713 109.796C9.68506 109.542 9.50684 109.359 9.27246 109.247C9.03809 109.13 8.75 109.071 8.4082 109.071C8.07129 109.071 7.76367 109.142 7.48535 109.284C7.21191 109.425 6.9751 109.621 6.7749 109.87C6.57959 110.119 6.42578 110.404 6.31348 110.727C6.20605 111.044 6.15234 111.381 6.15234 111.737ZM16.7285 108.075V109.115H12.4438V108.075H16.7285ZM13.894 106.149H15.249V114.037C15.249 114.306 15.2905 114.508 15.3735 114.645C15.4565 114.782 15.564 114.872 15.6958 114.916C15.8276 114.96 15.9692 114.982 16.1206 114.982C16.2329 114.982 16.3501 114.972 16.4722 114.953C16.5991 114.928 16.6943 114.909 16.7578 114.894L16.7651 116C16.6577 116.034 16.5161 116.066 16.3403 116.095C16.1694 116.129 15.9619 116.146 15.7178 116.146C15.3857 116.146 15.0806 116.081 14.8022 115.949C14.5239 115.817 14.3018 115.597 14.1357 115.29C13.9746 114.977 13.894 114.557 13.894 114.03V106.149ZM21.6064 116.146C21.0547 116.146 20.5542 116.054 20.105 115.868C19.6606 115.678 19.2773 115.412 18.9551 115.07C18.6377 114.728 18.3936 114.323 18.2227 113.854C18.0518 113.385 17.9663 112.873 17.9663 112.316V112.008C17.9663 111.364 18.0615 110.79 18.252 110.287C18.4424 109.779 18.7012 109.35 19.0283 108.998C19.3555 108.646 19.7266 108.38 20.1416 108.2C20.5566 108.019 20.9863 107.929 21.4307 107.929C21.9971 107.929 22.4854 108.026 22.8955 108.222C23.3105 108.417 23.6499 108.69 23.9136 109.042C24.1772 109.389 24.3726 109.799 24.4995 110.272C24.6265 110.741 24.6899 111.254 24.6899 111.811V112.418H18.772V111.312H23.335V111.21C23.3154 110.858 23.2422 110.517 23.1152 110.185C22.9932 109.853 22.7979 109.579 22.5293 109.364C22.2607 109.149 21.8945 109.042 21.4307 109.042C21.123 109.042 20.8398 109.108 20.5811 109.24C20.3223 109.367 20.1001 109.557 19.9146 109.811C19.729 110.065 19.585 110.375 19.4824 110.741C19.3799 111.107 19.3286 111.53 19.3286 112.008V112.316C19.3286 112.692 19.3799 113.046 19.4824 113.378C19.5898 113.705 19.7437 113.993 19.9438 114.242C20.1489 114.491 20.3955 114.687 20.6836 114.828C20.9766 114.97 21.3086 115.041 21.6797 115.041C22.1582 115.041 22.5635 114.943 22.8955 114.748C23.2275 114.552 23.5181 114.291 23.7671 113.964L24.5874 114.616C24.4165 114.875 24.1992 115.121 23.9355 115.355C23.6719 115.59 23.3472 115.78 22.9614 115.927C22.5806 116.073 22.1289 116.146 21.6064 116.146ZM27.627 109.32V116H26.272V108.075H27.5903L27.627 109.32ZM30.1025 108.031L30.0952 109.291C29.9829 109.267 29.8755 109.252 29.7729 109.247C29.6753 109.237 29.563 109.232 29.436 109.232C29.1235 109.232 28.8477 109.281 28.6084 109.379C28.3691 109.477 28.1665 109.613 28.0005 109.789C27.8345 109.965 27.7026 110.175 27.605 110.419C27.5122 110.658 27.4512 110.922 27.4219 111.21L27.041 111.43C27.041 110.951 27.0874 110.502 27.1802 110.082C27.2778 109.662 27.4268 109.291 27.627 108.969C27.8271 108.642 28.0811 108.388 28.3887 108.207C28.7012 108.021 29.0723 107.929 29.502 107.929C29.5996 107.929 29.7119 107.941 29.8389 107.965C29.9658 107.985 30.0537 108.007 30.1025 108.031ZM32.7026 109.65V116H31.3403V108.075H32.6294L32.7026 109.65ZM32.4243 111.737L31.7944 111.715C31.7993 111.173 31.8701 110.673 32.0068 110.214C32.1436 109.75 32.3462 109.347 32.6147 109.005C32.8833 108.664 33.2178 108.4 33.6182 108.214C34.0186 108.024 34.4824 107.929 35.0098 107.929C35.3809 107.929 35.7227 107.982 36.0352 108.09C36.3477 108.192 36.6187 108.356 36.8481 108.581C37.0776 108.805 37.2559 109.093 37.3828 109.445C37.5098 109.796 37.5732 110.221 37.5732 110.719V116H36.2183V110.785C36.2183 110.37 36.1475 110.038 36.0059 109.789C35.8691 109.54 35.6738 109.359 35.4199 109.247C35.166 109.13 34.8682 109.071 34.5264 109.071C34.126 109.071 33.7915 109.142 33.5229 109.284C33.2544 109.425 33.0396 109.621 32.8784 109.87C32.7173 110.119 32.6001 110.404 32.5269 110.727C32.4585 111.044 32.4243 111.381 32.4243 111.737ZM37.5586 110.99L36.6504 111.269C36.6553 110.834 36.7261 110.417 36.8628 110.016C37.0044 109.616 37.207 109.259 37.4707 108.947C37.7393 108.634 38.0688 108.388 38.4595 108.207C38.8501 108.021 39.2969 107.929 39.7998 107.929C40.2246 107.929 40.6006 107.985 40.9277 108.097C41.2598 108.209 41.5381 108.383 41.7627 108.617C41.9922 108.847 42.1655 109.142 42.2827 109.503C42.3999 109.865 42.4585 110.294 42.4585 110.792V116H41.0962V110.778C41.0962 110.333 41.0254 109.989 40.8838 109.745C40.7471 109.496 40.5518 109.323 40.2979 109.225C40.0488 109.123 39.751 109.071 39.4043 109.071C39.1064 109.071 38.8428 109.123 38.6133 109.225C38.3838 109.328 38.1909 109.469 38.0347 109.65C37.8784 109.826 37.7588 110.028 37.6758 110.258C37.5977 110.487 37.5586 110.731 37.5586 110.99ZM47.7979 116.146C47.2461 116.146 46.7456 116.054 46.2964 115.868C45.8521 115.678 45.4688 115.412 45.1465 115.07C44.8291 114.728 44.585 114.323 44.4141 113.854C44.2432 113.385 44.1577 112.873 44.1577 112.316V112.008C44.1577 111.364 44.2529 110.79 44.4434 110.287C44.6338 109.779 44.8926 109.35 45.2197 108.998C45.5469 108.646 45.918 108.38 46.333 108.2C46.748 108.019 47.1777 107.929 47.6221 107.929C48.1885 107.929 48.6768 108.026 49.0869 108.222C49.502 108.417 49.8413 108.69 50.105 109.042C50.3687 109.389 50.564 109.799 50.6909 110.272C50.8179 110.741 50.8813 111.254 50.8813 111.811V112.418H44.9634V111.312H49.5264V111.21C49.5068 110.858 49.4336 110.517 49.3066 110.185C49.1846 109.853 48.9893 109.579 48.7207 109.364C48.4521 109.149 48.0859 109.042 47.6221 109.042C47.3145 109.042 47.0312 109.108 46.7725 109.24C46.5137 109.367 46.2915 109.557 46.106 109.811C45.9204 110.065 45.7764 110.375 45.6738 110.741C45.5713 111.107 45.52 111.53 45.52 112.008V112.316C45.52 112.692 45.5713 113.046 45.6738 113.378C45.7812 113.705 45.9351 113.993 46.1353 114.242C46.3403 114.491 46.5869 114.687 46.875 114.828C47.168 114.97 47.5 115.041 47.8711 115.041C48.3496 115.041 48.7549 114.943 49.0869 114.748C49.4189 114.552 49.7095 114.291 49.9585 113.964L50.7788 114.616C50.6079 114.875 50.3906 115.121 50.127 115.355C49.8633 115.59 49.5386 115.78 49.1528 115.927C48.772 116.073 48.3203 116.146 47.7979 116.146ZM57.4585 114.462V104.75H58.8208V116H57.5757L57.4585 114.462ZM52.1265 112.125V111.972C52.1265 111.366 52.1997 110.817 52.3462 110.324C52.4976 109.826 52.71 109.398 52.9834 109.042C53.2617 108.686 53.5913 108.412 53.9722 108.222C54.3579 108.026 54.7876 107.929 55.2612 107.929C55.7593 107.929 56.1938 108.017 56.5649 108.192C56.9409 108.363 57.2583 108.615 57.5171 108.947C57.7808 109.274 57.9883 109.669 58.1396 110.133C58.291 110.597 58.396 111.122 58.4546 111.708V112.382C58.4009 112.963 58.2959 113.485 58.1396 113.949C57.9883 114.413 57.7808 114.809 57.5171 115.136C57.2583 115.463 56.9409 115.714 56.5649 115.89C56.189 116.061 55.7495 116.146 55.2466 116.146C54.7827 116.146 54.3579 116.046 53.9722 115.846C53.5913 115.646 53.2617 115.365 52.9834 115.004C52.71 114.643 52.4976 114.218 52.3462 113.729C52.1997 113.236 52.1265 112.702 52.1265 112.125ZM53.4888 111.972V112.125C53.4888 112.521 53.5278 112.892 53.606 113.239C53.689 113.585 53.8159 113.891 53.9868 114.154C54.1577 114.418 54.375 114.625 54.6387 114.777C54.9023 114.923 55.2173 114.997 55.5835 114.997C56.0327 114.997 56.4014 114.901 56.6895 114.711C56.9824 114.521 57.2168 114.269 57.3926 113.957C57.5684 113.644 57.7051 113.305 57.8027 112.938V111.173C57.7441 110.905 57.6587 110.646 57.5464 110.397C57.439 110.143 57.2974 109.918 57.1216 109.723C56.9507 109.523 56.7383 109.364 56.4844 109.247C56.2354 109.13 55.9399 109.071 55.5981 109.071C55.2271 109.071 54.9072 109.149 54.6387 109.306C54.375 109.457 54.1577 109.667 53.9868 109.936C53.8159 110.199 53.689 110.507 53.606 110.858C53.5278 111.205 53.4888 111.576 53.4888 111.972ZM62.4023 108.075V116H61.04V108.075H62.4023ZM60.9375 105.973C60.9375 105.753 61.0034 105.568 61.1353 105.417C61.272 105.265 61.4722 105.189 61.7358 105.189C61.9946 105.189 62.1924 105.265 62.3291 105.417C62.4707 105.568 62.5415 105.753 62.5415 105.973C62.5415 106.183 62.4707 106.364 62.3291 106.515C62.1924 106.662 61.9946 106.735 61.7358 106.735C61.4722 106.735 61.272 106.662 61.1353 106.515C61.0034 106.364 60.9375 106.183 60.9375 105.973ZM69.2505 114.645V110.565C69.2505 110.253 69.187 109.982 69.0601 109.752C68.938 109.518 68.7524 109.337 68.5034 109.21C68.2544 109.083 67.9468 109.02 67.5806 109.02C67.2388 109.02 66.9385 109.079 66.6797 109.196C66.4258 109.313 66.2256 109.467 66.0791 109.657C65.9375 109.848 65.8667 110.053 65.8667 110.272H64.5117C64.5117 109.989 64.585 109.708 64.7314 109.43C64.8779 109.152 65.0879 108.9 65.3613 108.676C65.6396 108.446 65.9717 108.266 66.3574 108.134C66.748 107.997 67.1826 107.929 67.6611 107.929C68.2373 107.929 68.7451 108.026 69.1846 108.222C69.6289 108.417 69.9756 108.712 70.2246 109.108C70.4785 109.499 70.6055 109.989 70.6055 110.58V114.271C70.6055 114.535 70.6274 114.816 70.6714 115.114C70.7202 115.412 70.791 115.668 70.8838 115.883V116H69.4702C69.4019 115.844 69.3481 115.636 69.3091 115.377C69.27 115.114 69.2505 114.87 69.2505 114.645ZM69.4849 111.195L69.4995 112.147H68.1299C67.7441 112.147 67.3999 112.179 67.0972 112.243C66.7944 112.301 66.5405 112.392 66.3354 112.514C66.1304 112.636 65.9741 112.79 65.8667 112.975C65.7593 113.156 65.7056 113.368 65.7056 113.612C65.7056 113.861 65.7617 114.088 65.874 114.293C65.9863 114.499 66.1548 114.662 66.3794 114.784C66.6089 114.901 66.8896 114.96 67.2217 114.96C67.6367 114.96 68.0029 114.872 68.3203 114.696C68.6377 114.521 68.8892 114.306 69.0747 114.052C69.2651 113.798 69.3677 113.551 69.3823 113.312L69.9609 113.964C69.9268 114.169 69.834 114.396 69.6826 114.645C69.5312 114.894 69.3286 115.133 69.0747 115.363C68.8257 115.587 68.5278 115.775 68.1812 115.927C67.8394 116.073 67.4536 116.146 67.0239 116.146C66.4868 116.146 66.0156 116.042 65.6104 115.832C65.21 115.622 64.8975 115.341 64.6729 114.989C64.4531 114.633 64.3433 114.235 64.3433 113.795C64.3433 113.371 64.4263 112.997 64.5923 112.675C64.7583 112.348 64.9976 112.077 65.3101 111.862C65.6226 111.642 65.9985 111.476 66.438 111.364C66.8774 111.251 67.3682 111.195 67.9102 111.195H69.4849ZM76.0547 108.075V109.115H71.77V108.075H76.0547ZM73.2202 106.149H74.5752V114.037C74.5752 114.306 74.6167 114.508 74.6997 114.645C74.7827 114.782 74.8901 114.872 75.022 114.916C75.1538 114.96 75.2954 114.982 75.4468 114.982C75.5591 114.982 75.6763 114.972 75.7983 114.953C75.9253 114.928 76.0205 114.909 76.084 114.894L76.0913 116C75.9839 116.034 75.8423 116.066 75.6665 116.095C75.4956 116.129 75.2881 116.146 75.0439 116.146C74.7119 116.146 74.4067 116.081 74.1284 115.949C73.8501 115.817 73.6279 115.597 73.4619 115.29C73.3008 114.977 73.2202 114.557 73.2202 114.03V106.149ZM80.9326 116.146C80.3809 116.146 79.8804 116.054 79.4312 115.868C78.9868 115.678 78.6035 115.412 78.2812 115.07C77.9639 114.728 77.7197 114.323 77.5488 113.854C77.3779 113.385 77.2925 112.873 77.2925 112.316V112.008C77.2925 111.364 77.3877 110.79 77.5781 110.287C77.7686 109.779 78.0273 109.35 78.3545 108.998C78.6816 108.646 79.0527 108.38 79.4678 108.2C79.8828 108.019 80.3125 107.929 80.7568 107.929C81.3232 107.929 81.8115 108.026 82.2217 108.222C82.6367 108.417 82.9761 108.69 83.2397 109.042C83.5034 109.389 83.6987 109.799 83.8257 110.272C83.9526 110.741 84.0161 111.254 84.0161 111.811V112.418H78.0981V111.312H82.6611V111.21C82.6416 110.858 82.5684 110.517 82.4414 110.185C82.3193 109.853 82.124 109.579 81.8555 109.364C81.5869 109.149 81.2207 109.042 80.7568 109.042C80.4492 109.042 80.166 109.108 79.9072 109.24C79.6484 109.367 79.4263 109.557 79.2407 109.811C79.0552 110.065 78.9111 110.375 78.8086 110.741C78.7061 111.107 78.6548 111.53 78.6548 112.008V112.316C78.6548 112.692 78.7061 113.046 78.8086 113.378C78.916 113.705 79.0698 113.993 79.27 114.242C79.4751 114.491 79.7217 114.687 80.0098 114.828C80.3027 114.97 80.6348 115.041 81.0059 115.041C81.4844 115.041 81.8896 114.943 82.2217 114.748C82.5537 114.552 82.8442 114.291 83.0933 113.964L83.9136 114.616C83.7427 114.875 83.5254 115.121 83.2617 115.355C82.998 115.59 82.6733 115.78 82.2876 115.927C81.9067 116.073 81.4551 116.146 80.9326 116.146Z" fill="black"/>
<defs>
<clipPath id="clip0_15_115">
<rect width="80" height="80" fill="white" transform="translate(2)"/>
</clipPath>
</defs>
</svg>
