<svg width="80" height="80" viewBox="0 0 80 80" fill="none" xmlns="http://www.w3.org/2000/svg">
<g clip-path="url(#clip0_14_77)">
<path d="M20 80C31.04 80 40 74.0267 40 66.6667V53.3334H20C8.96 53.3334 0 59.3067 0 66.6667C0 74.0267 8.96 80 20 80Z" fill="#0ACF83"/>
<path d="M0 40C0 32.64 8.96 26.6667 20 26.6667H40V53.3334H20C8.96 53.3334 0 47.36 0 40Z" fill="#A259FF"/>
<path d="M0 13.3333C0 5.97333 8.96 0 20 0H40V26.6667H20C8.96 26.6667 0 20.6933 0 13.3333Z" fill="#F24E1E"/>
<path d="M40 0H60C71.04 0 80 5.97333 80 13.3333C80 20.6933 71.04 26.6667 60 26.6667H40V0Z" fill="#FF7262"/>
<path d="M80 40C80 47.36 71.04 53.3334 60 53.3334C48.96 53.3334 40 47.36 40 40C40 32.64 48.96 26.6667 60 26.6667C71.04 26.6667 80 32.64 80 40Z" fill="#1ABCFE"/>
</g>
<defs>
<clipPath id="clip0_14_77">
<rect width="80" height="80" fill="white"/>
</clipPath>
</defs>
</svg>
