<svg width="39" height="38" viewBox="0 0 39 38" fill="none" xmlns="http://www.w3.org/2000/svg">
<path d="M34.3912 0.25H4.62926C3.50164 0.25 2.42021 0.688987 1.62286 1.47039C0.825509 2.25179 0.377563 3.3116 0.377563 4.41667V33.5833C0.377563 34.6884 0.825509 35.7482 1.62286 36.5296C2.42021 37.311 3.50164 37.75 4.62926 37.75H34.3912C36.7509 37.75 38.6429 35.8958 38.6429 33.5833V4.41667C38.6429 3.3116 38.1949 2.25179 37.3976 1.47039C36.6002 0.688987 35.5188 0.25 34.3912 0.25ZM34.3912 33.5833H4.62926V4.41667H34.3912V33.5833ZM27.3971 9.4375L17.6395 19L27.3971 28.5625L24.3784 31.5L11.6233 19L24.3784 6.5L27.3971 9.4375Z" fill="#496CE7"/>
</svg>
