<svg width="39" height="38" viewBox="0 0 39 38" fill="none" xmlns="http://www.w3.org/2000/svg">
<path d="M34.3912 0.25H4.62925C3.50163 0.25 2.42019 0.688987 1.62284 1.47039C0.825494 2.25179 0.377548 3.3116 0.377548 4.41667V33.5833C0.377548 34.6884 0.825494 35.7482 1.62284 36.5296C2.42019 37.311 3.50163 37.75 4.62925 37.75H34.3912C36.7508 37.75 38.6429 35.8958 38.6429 33.5833V4.41667C38.6429 3.3116 38.1949 2.25179 37.3976 1.47039C36.6002 0.688987 35.5188 0.25 34.3912 0.25ZM34.3912 33.5833H4.62925V4.41667H34.3912V33.5833ZM11.6233 28.5625L21.3809 19L11.6233 9.4375L14.642 6.5L27.3971 19L14.642 31.5L11.6233 28.5625Z" fill="#496CE7"/>
</svg>
