<svg width="80" height="80" viewBox="0 0 80 80" fill="none" xmlns="http://www.w3.org/2000/svg">
<path fill-rule="evenodd" clip-rule="evenodd" d="M71.9525 11.0125H46.6275V5.04504L5 11.47V67.7875L46.6275 74.9575V66.1125H71.9525C72.7195 66.1514 73.4707 65.885 74.0417 65.3715C74.6128 64.858 74.9574 64.1393 75 63.3725V13.75C74.9567 12.9837 74.6119 12.2656 74.0409 11.7527C73.4699 11.2398 72.7191 10.9737 71.9525 11.0125ZM72.3525 63.8275H46.5425L46.5 59.105H52.7175V53.605H46.4525L46.4225 50.355H52.7175V44.855H46.375L46.345 41.605H52.7175V36.105H46.325V32.855H52.7175V27.355H46.325V24.105H52.7175V18.605H46.325V13.605H72.3525V63.8275Z" fill="#20744A"/>
<path d="M56.2175 18.5975H67.025V24.0975H56.2175V18.5975ZM56.2175 27.35H67.025V32.85H56.2175V27.35ZM56.2175 36.1025H67.025V41.6025H56.2175V36.1025ZM56.2175 44.855H67.025V50.355H56.2175V44.855ZM56.2175 53.6075H67.025V59.1075H56.2175V53.6075Z" fill="#20744A"/>
<path fill-rule="evenodd" clip-rule="evenodd" d="M15.8675 26.6826L21.2325 26.3751L24.605 35.6476L28.59 25.9926L33.955 25.6851L27.44 38.8501L33.955 52.0476L28.2825 51.6651L24.4525 41.6051L20.62 51.2826L15.4075 50.8226L21.4625 39.1651L15.8675 26.6826Z" fill="white"/>
</svg>
