<svg width="80" height="80" viewBox="0 0 80 80" fill="none" xmlns="http://www.w3.org/2000/svg">
<path d="M46.34 5.80755V12.1701C54.84 12.2176 64.14 12.0826 72.6425 12.2176C72.9424 12.1654 73.2503 12.1839 73.5418 12.2716C73.8333 12.3593 74.1003 12.5138 74.3216 12.7227C74.543 12.9317 74.7125 13.1894 74.8168 13.4753C74.9211 13.7613 74.9573 14.0677 74.9225 14.3701C75.0575 30.0351 74.89 46.5951 75.0025 62.2626C74.9525 63.2626 75.025 65.0576 74.87 66.0551C74.6725 67.3276 74.105 67.5726 72.8275 67.7451C72.1125 67.8426 70.9175 67.8301 70.215 67.8626C63.235 67.8276 56.26 67.8351 49.28 67.8376H46.3425V74.205L5 67.8326V12.1826L46.34 5.80755Z" fill="#283C82"/>
<path d="M46.34 14.5551H72.59V65.45H46.34V59.0875H67.015V55.9076H46.34V51.9326H67.015V48.75H46.34V44.775H67.015V41.5925H46.34V37.6176H67.015V34.4351H46.34V30.4601H67.015V27.2776H46.34V23.3026H67.015V20.1201H46.34V14.5551ZM21.4325 28.6076C22.9325 28.5201 24.455 28.4576 25.965 28.3776C27.0225 33.7451 28.105 39.1051 29.25 44.4501C30.1475 38.9301 31.1425 33.4276 32.105 27.9176C33.6938 27.8606 35.2815 27.7773 36.8675 27.6676C35.07 35.3726 33.495 43.1425 31.5325 50.8025C30.205 51.495 28.2175 50.7701 26.6425 50.8825C25.585 45.6176 24.3525 40.3825 23.405 35.0975C22.475 40.25 21.265 45.3325 20.2 50.4375C18.6733 50.3575 17.1408 50.265 15.6025 50.16C14.2825 43.16 12.7325 36.2126 11.5 29.1976C12.86 29.1351 14.2275 29.0776 15.5875 29.0301C16.4075 34.0951 17.3375 39.1376 18.0525 44.2101C19.1725 39.01 20.32 33.8076 21.4325 28.6076Z" fill="white"/>
</svg>
